<svg width="16" height="14" viewBox="0 0 16 14" fill="none" xmlns="http://www.w3.org/2000/svg">
<path d="M5.62478 10.4754H13.6386C13.9621 10.4754 14.2582 10.2156 14.2582 9.84353C14.2582 9.47843 13.9621 9.21866 13.6386 9.21866H5.78313C5.45267 9.21866 5.24613 8.98696 5.19793 8.62889L5.09466 7.8987H13.6936C14.747 7.8987 15.3046 7.24574 15.4561 6.17854L15.9725 2.66098C15.9862 2.56971 16 2.45035 16 2.37312C16 1.95888 15.7177 1.67803 15.2427 1.67803H4.20654L4.10327 0.919759C4.01377 0.308927 3.77281 0 3.00861 0H0.64716C0.302926 0 0 0.308927 0 0.667001C0 1.0321 0.302926 1.34102 0.64716 1.34102H2.80207L3.86919 8.76931C4.02065 9.82949 4.57143 10.4754 5.62478 10.4754ZM14.568 2.9348L14.1343 6.05216C14.0792 6.41023 13.8933 6.6349 13.5559 6.6349L4.91566 6.64193L4.38554 2.9348H14.568ZM6.18933 14C6.85714 14 7.39415 13.4524 7.39415 12.7713C7.39415 12.0903 6.85714 11.5426 6.18933 11.5426C5.52151 11.5426 4.98451 12.0903 4.98451 12.7713C4.98451 13.4524 5.52151 14 6.18933 14ZM12.5508 14C13.2186 14 13.7487 13.4524 13.7487 12.7713C13.7487 12.0903 13.2186 11.5426 12.5508 11.5426C11.883 11.5426 11.3391 12.0903 11.3391 12.7713C11.3391 13.4524 11.883 14 12.5508 14Z" fill="#ECECEC"/>
</svg>
