<svg width="24" height="24" viewBox="0 0 24 24" fill="none" xmlns="http://www.w3.org/2000/svg">
<path d="M4.36859 9.58684C4.36859 12.8036 7.07311 15.9828 11.2768 18.6948C11.5103 18.8455 11.7966 18.9962 11.9925 18.9962C12.1883 18.9962 12.4746 18.8455 12.7082 18.6948C16.9194 15.9828 19.6164 12.8036 19.6164 9.58684C19.6164 6.80699 17.6953 4.87842 15.2319 4.87842C13.793 4.87842 12.6705 5.53383 11.9925 6.52825C11.3295 5.54136 10.1995 4.87842 8.76061 4.87842C6.28963 4.87842 4.36859 6.80699 4.36859 9.58684ZM5.92049 9.57931C5.92049 7.68087 7.17105 6.39265 8.85101 6.39265C10.207 6.39265 10.9679 7.2138 11.4425 7.92948C11.6535 8.23835 11.7966 8.33629 11.9925 8.33629C12.1959 8.33629 12.3239 8.23082 12.5424 7.92948C13.0547 7.22886 13.7854 6.39265 15.1339 6.39265C16.8214 6.39265 18.072 7.68087 18.072 9.57931C18.072 12.2311 15.3147 15.1692 12.1356 17.2785C12.0678 17.3237 12.0226 17.3539 11.9925 17.3539C11.9623 17.3539 11.9171 17.3237 11.8569 17.2785C8.67774 15.1692 5.92049 12.2311 5.92049 9.57931Z" fill="#ECECEC"/>
</svg>
