<svg width="26" height="26" viewBox="0 0 26 26" fill="none" xmlns="http://www.w3.org/2000/svg">
<path d="M9.9203 22.5027V19.1804C9.92028 18.3354 10.6092 17.6487 11.4627 17.643H14.5893C15.447 17.643 16.1422 18.3313 16.1422 19.1804V19.1804V22.513C16.142 23.2305 16.7204 23.8168 17.4449 23.8337H19.5293C21.6072 23.8337 23.2916 22.1661 23.2916 20.109V20.109V10.658C23.2805 9.84872 22.8967 9.08879 22.2495 8.59444L15.1208 2.9094C13.872 1.91952 12.0967 1.91952 10.8478 2.9094L3.75051 8.60476C3.10076 9.0971 2.71632 9.8583 2.70831 10.6683V20.109C2.70831 22.1661 4.39276 23.8337 6.47063 23.8337H8.55502C9.29753 23.8337 9.89945 23.2378 9.89945 22.5027V22.5027" stroke="#ffffff" stroke-width="1.5" stroke-linecap="round" stroke-linejoin="round"/>
</svg>
