<svg width="26" height="26" viewBox="0 0 26 26" fill="none" xmlns="http://www.w3.org/2000/svg">
<path d="M22.3333 1H3.66667C2.19391 1 1 2.19391 1 3.66667V22.3333C1 23.8061 2.19391 25 3.66667 25H22.3333C23.8061 25 25 23.8061 25 22.3333V3.66667C25 2.19391 23.8061 1 22.3333 1Z" stroke="#999999" stroke-width="1.5" stroke-linecap="round" stroke-linejoin="round"/>
<path d="M8.33203 10.334C9.4366 10.334 10.332 9.43855 10.332 8.33398C10.332 7.22941 9.4366 6.33398 8.33203 6.33398C7.22746 6.33398 6.33203 7.22941 6.33203 8.33398C6.33203 9.43855 7.22746 10.334 8.33203 10.334Z" stroke="#999999" stroke-width="1.5" stroke-linecap="round" stroke-linejoin="round"/>
<path d="M25.0013 17.0007L18.3346 10.334L3.66797 25.0007" stroke="#999999" stroke-width="1.5" stroke-linecap="round" stroke-linejoin="round"/>
</svg>
