<svg width="24" height="24" viewBox="0 0 24 24" fill="none" xmlns="http://www.w3.org/2000/svg">
<path fill-rule="evenodd" clip-rule="evenodd" d="M8.9119 4.21255C9.7737 4.17288 10.0485 4.16406 12.2437 4.16406C14.439 4.16406 14.7138 4.17361 15.5748 4.21255C16.4359 4.25149 17.0237 4.38888 17.5379 4.58798C18.0765 4.79149 18.565 5.10961 18.9691 5.52104C19.3806 5.92439 19.6979 6.41223 19.9007 6.95149C20.1006 7.46578 20.2372 8.05353 20.2769 8.91312C20.3166 9.77639 20.3254 10.0512 20.3254 12.2457C20.3254 14.441 20.3158 14.7157 20.2769 15.5775C20.2379 16.4371 20.1006 17.0249 19.9007 17.5392C19.6979 18.0785 19.38 18.5671 18.9691 18.9711C18.565 19.3825 18.0765 19.6999 17.5379 19.9027C17.0237 20.1025 16.4359 20.2392 15.5763 20.2788C14.7138 20.3185 14.439 20.3273 12.2437 20.3273C10.0485 20.3273 9.7737 20.3178 8.9119 20.2788C8.05231 20.2399 7.46456 20.1025 6.95027 19.9027C6.41095 19.6999 5.9223 19.382 5.51835 18.9711C5.1072 18.5675 4.78903 18.0791 4.58603 17.5399C4.38693 17.0256 4.25027 16.4379 4.2106 15.5783C4.17093 14.715 4.16211 14.4402 4.16211 12.2457C4.16211 10.0504 4.17166 9.77565 4.2106 8.91459C4.24954 8.05353 4.38693 7.46578 4.58603 6.95149C4.78933 6.41229 5.10775 5.92388 5.51909 5.52031C5.92247 5.10925 6.41062 4.79108 6.94954 4.58798C7.46382 4.38888 8.05158 4.25223 8.91117 4.21255H8.9119ZM15.5095 5.66725C14.6572 5.62831 14.4015 5.62023 12.2437 5.62023C10.0859 5.62023 9.83027 5.62831 8.97803 5.66725C8.1897 5.70325 7.76211 5.83476 7.47705 5.94569C7.10015 6.09263 6.83052 6.26676 6.54766 6.54961C6.27953 6.81047 6.07318 7.12802 5.94374 7.479C5.8328 7.76406 5.70129 8.19165 5.66529 8.97998C5.62635 9.83222 5.61827 10.0879 5.61827 12.2457C5.61827 14.4035 5.62635 14.6592 5.66529 15.5114C5.70129 16.2997 5.8328 16.7273 5.94374 17.0124C6.07305 17.3628 6.2795 17.681 6.54766 17.9418C6.80848 18.2099 7.1266 18.4164 7.47705 18.5457C7.76211 18.6566 8.1897 18.7881 8.97803 18.8241C9.83027 18.8631 10.0852 18.8712 12.2437 18.8712C14.4023 18.8712 14.6572 18.8631 15.5095 18.8241C16.2978 18.7881 16.7254 18.6566 17.0104 18.5457C17.3873 18.3988 17.657 18.2246 17.9398 17.9418C18.208 17.681 18.4144 17.3628 18.5437 17.0124C18.6547 16.7273 18.7862 16.2997 18.8222 15.5114C18.8611 14.6592 18.8692 14.4035 18.8692 12.2457C18.8692 10.0879 18.8611 9.83222 18.8222 8.97998C18.7862 8.19165 18.6547 7.76406 18.5437 7.479C18.3968 7.1021 18.2227 6.83247 17.9398 6.54961C17.679 6.2815 17.3614 6.07516 17.0104 5.94569C16.7254 5.83476 16.2978 5.70325 15.5095 5.66725ZM11.2115 14.737C11.788 14.977 12.4299 15.0094 13.0276 14.8287C13.6253 14.6479 14.1417 14.2653 14.4887 13.7461C14.8356 13.2269 14.9915 12.6034 14.9298 11.982C14.8681 11.3606 14.5926 10.78 14.1503 10.3392C13.8683 10.0574 13.5274 9.84164 13.1521 9.70744C12.7767 9.57323 12.3763 9.52392 11.9796 9.56304C11.5829 9.60217 11.1999 9.72876 10.858 9.93371C10.5161 10.1387 10.2239 10.4169 10.0024 10.7483C9.78095 11.0797 9.63572 11.4561 9.57718 11.8504C9.51865 12.2447 9.54826 12.6471 9.66389 13.0285C9.77953 13.41 9.9783 13.7611 10.2459 14.0565C10.5135 14.3519 10.8433 14.5844 11.2115 14.737ZM9.30644 9.30839C9.69217 8.92266 10.1501 8.61668 10.6541 8.40792C11.1581 8.19916 11.6982 8.09172 12.2437 8.09172C12.7892 8.09172 13.3294 8.19916 13.8334 8.40792C14.3374 8.61668 14.7953 8.92266 15.181 9.30839C15.5668 9.69412 15.8728 10.1521 16.0815 10.656C16.2903 11.16 16.3977 11.7002 16.3977 12.2457C16.3977 12.7912 16.2903 13.3314 16.0815 13.8354C15.8728 14.3393 15.5668 14.7973 15.181 15.183C14.402 15.962 13.3454 16.3997 12.2437 16.3997C11.142 16.3997 10.0855 15.962 9.30644 15.183C8.52741 14.404 8.08976 13.3474 8.08976 12.2457C8.08976 11.144 8.52741 10.0874 9.30644 9.30839ZM17.319 8.71035C17.4146 8.62018 17.4911 8.51175 17.544 8.39147C17.597 8.2712 17.6252 8.14152 17.6271 8.01013C17.6291 7.87874 17.6046 7.7483 17.5552 7.62653C17.5058 7.50477 17.4325 7.39415 17.3395 7.30123C17.2466 7.20832 17.136 7.13499 17.0142 7.08559C16.8925 7.03618 16.762 7.01172 16.6306 7.01363C16.4993 7.01555 16.3696 7.04381 16.2493 7.09674C16.129 7.14967 16.0206 7.22619 15.9304 7.32178C15.7551 7.50768 15.6591 7.7546 15.6628 8.01013C15.6665 8.26567 15.7697 8.50969 15.9504 8.6904C16.1311 8.8711 16.3751 8.97427 16.6306 8.978C16.8862 8.98172 17.1331 8.88571 17.319 8.71035Z" fill="#ECECEC"/>
</svg>
