<svg width="14" height="10" viewBox="0 0 14 10" fill="none" xmlns="http://www.w3.org/2000/svg">
<path d="M0.968087 9.15193H1.27947C1.54565 9.15193 1.72144 8.98117 1.72144 8.70996V7.98675C1.7817 8.00181 1.95748 8.01186 2.08304 8.01186H11.9117C12.0373 8.01186 12.2131 8.00181 12.2733 7.98675V8.70996C12.2733 8.98117 12.4491 9.15193 12.7153 9.15193H13.0267C13.2929 9.15193 13.4686 8.98117 13.4686 8.70996V5.18931C13.4686 4.28027 13.0116 3.75293 12.1679 3.66755V1.89969C12.1679 0.945452 11.6556 0.448242 10.7214 0.448242H3.27333C2.33918 0.448242 1.8269 0.945452 1.8269 1.89969V3.66755C0.983154 3.75293 0.526123 4.28027 0.526123 5.18931V8.70996C0.526123 8.98117 0.701904 9.15193 0.968087 9.15193ZM3.17791 2.7334C3.17791 2.25126 3.44409 1.98507 3.93628 1.98507H5.74431C6.23148 1.98507 6.49766 2.25126 6.49766 2.7334V3.65751H3.17791V2.7334ZM7.4971 2.7334C7.4971 2.25126 7.76329 1.98507 8.25045 1.98507H10.0585C10.5507 1.98507 10.8169 2.25126 10.8169 2.7334V3.65751H7.4971V2.7334ZM1.67121 7.15304C1.5557 7.15304 1.49041 7.07771 1.49041 6.95215V5.12905C1.49041 4.75739 1.7365 4.51632 2.10815 4.51632H11.8866C12.2583 4.51632 12.5044 4.75739 12.5044 5.12905V6.95215C12.5044 7.07771 12.4391 7.15304 12.3236 7.15304H1.67121Z" fill="#ECECEC"/>
</svg>
