<svg width="24" height="24" viewBox="0 0 24 24" fill="none" xmlns="http://www.w3.org/2000/svg">
<path d="M5.55127 18.7554H18.4411C20.0758 18.7554 20.9271 17.9116 20.9271 16.2995V7.13121C20.9271 5.51904 20.0758 4.67529 18.4411 4.67529H5.55127C3.92404 4.67529 3.07275 5.51151 3.07275 7.13121V16.2995C3.07275 17.9116 3.92404 18.7554 5.55127 18.7554ZM5.64921 17.2562C4.95612 17.2562 4.57192 16.8946 4.57192 16.1639V7.26681C4.57192 6.53606 4.95612 6.17446 5.64921 6.17446H18.3431C19.0362 6.17446 19.4204 6.53606 19.4204 7.26681V16.1639C19.4204 16.8946 19.0362 17.2562 18.3431 17.2562H5.64921ZM14.9229 12.1259C15.2469 11.9376 15.2393 11.4856 14.9229 11.2972L10.5912 8.74337C10.2597 8.5475 9.82275 8.71324 9.82275 9.08238V14.3408C9.82275 14.7024 10.2371 14.8832 10.5912 14.6722L14.9229 12.1259Z" fill="white"/>
</svg>
