<svg width="12" height="12" viewBox="0 0 12 12" fill="none" xmlns="http://www.w3.org/2000/svg">
<path d="M5.9971 12C9.28565 12 12 9.28433 12 6C12 2.71567 9.27985 0 5.9913 0C2.70855 0 0 2.71567 0 6C0 9.28433 2.71435 12 5.9971 12ZM5.9971 10.8046C3.33494 10.8046 1.20638 8.66344 1.20638 6C1.20638 3.33656 3.33494 1.20116 5.9913 1.20116C8.65346 1.20116 10.7936 3.33656 10.7994 6C10.8052 8.66344 8.65926 10.8046 5.9971 10.8046ZM5.9913 9.26112C6.1421 9.26112 6.2581 9.15087 6.2581 8.9942V8.60542C7.19768 8.51838 7.90527 7.97872 7.90527 7.09671C7.90527 6.30754 7.39488 5.84333 6.38569 5.65764L6.2581 5.62863V4.18956C6.62929 4.25338 6.88449 4.47389 6.99468 4.81625C7.08168 5.00774 7.20348 5.11799 7.41228 5.11799C7.64427 5.11799 7.80667 4.96132 7.80667 4.74081C7.80667 4.67118 7.78927 4.60735 7.77767 4.53772C7.62107 3.94004 7.03528 3.51064 6.2581 3.4294V3.04062C6.2581 2.88395 6.1421 2.77369 5.9913 2.77369C5.8405 2.77369 5.7303 2.88395 5.7303 3.04062V3.4294C4.81392 3.52224 4.16433 4.0793 4.16433 4.88588C4.16433 5.64023 4.66892 6.08124 5.63171 6.30174L5.7303 6.32495V7.85687C5.26051 7.78723 4.98792 7.53772 4.89512 7.19536C4.81392 6.98646 4.68052 6.88201 4.48333 6.88201C4.23973 6.88201 4.08313 7.04449 4.08313 7.2766C4.08313 7.34043 4.10053 7.40425 4.11793 7.47969C4.28613 8.09478 4.90092 8.52418 5.7303 8.59961V8.9942C5.7303 9.15667 5.8405 9.26112 5.9913 9.26112ZM5.7303 5.49516L5.68971 5.48356C5.22571 5.3501 5.01112 5.147 5.01112 4.83366C5.01112 4.51451 5.28371 4.25338 5.7303 4.18375V5.49516ZM6.2581 6.45841L6.36829 6.48162C6.87289 6.62089 7.05268 6.82979 7.05268 7.16054C7.05268 7.52611 6.78589 7.79304 6.2581 7.85687V6.45841Z" fill="#ECECEC"/>
</svg>
