<svg width="20" height="20" viewBox="0 0 20 20" fill="none" xmlns="http://www.w3.org/2000/svg">
<path d="M7.62478 13.4754H15.6386C15.9621 13.4754 16.2582 13.2156 16.2582 12.8435C16.2582 12.4784 15.9621 12.2187 15.6386 12.2187H7.78313C7.45267 12.2187 7.24613 11.987 7.19793 11.6289L7.09466 10.8987H15.6936C16.747 10.8987 17.3046 10.2457 17.4561 9.17854L17.9725 5.66098C17.9862 5.56971 18 5.45035 18 5.37312C18 4.95888 17.7177 4.67803 17.2427 4.67803H6.20654L6.10327 3.91976C6.01377 3.30893 5.77281 3 5.00861 3H2.64716C2.30293 3 2 3.30893 2 3.667C2 4.0321 2.30293 4.34102 2.64716 4.34102H4.80207L5.86919 11.7693C6.02065 12.8295 6.57143 13.4754 7.62478 13.4754ZM16.568 5.9348L16.1343 9.05216C16.0792 9.41023 15.8933 9.6349 15.5559 9.6349L6.91566 9.64193L6.38554 5.9348H16.568ZM8.18933 17C8.85714 17 9.39415 16.4524 9.39415 15.7713C9.39415 15.0903 8.85714 14.5426 8.18933 14.5426C7.52151 14.5426 6.98451 15.0903 6.98451 15.7713C6.98451 16.4524 7.52151 17 8.18933 17ZM14.5508 17C15.2186 17 15.7487 16.4524 15.7487 15.7713C15.7487 15.0903 15.2186 14.5426 14.5508 14.5426C13.883 14.5426 13.3391 15.0903 13.3391 15.7713C13.3391 16.4524 13.883 17 14.5508 17Z" fill="#ECECEC"/>
</svg>
