<svg width="24" height="24" viewBox="0 0 24 24" fill="none" xmlns="http://www.w3.org/2000/svg">
<path d="M11.9999 18.7529C11.5521 18.7529 11.1227 18.575 10.806 18.2584C10.4894 17.9417 10.3115 17.5123 10.3115 17.0645C10.3115 16.6168 10.4894 16.1873 10.806 15.8707C11.1227 15.5541 11.5521 15.3762 11.9999 15.3762C12.4476 15.3762 12.8771 15.5541 13.1937 15.8707C13.5103 16.1873 13.6882 16.6168 13.6882 17.0645C13.6882 17.5123 13.5103 17.9417 13.1937 18.2584C12.8771 18.575 12.4476 18.7529 11.9999 18.7529ZM11.9999 13.6878C11.5521 13.6878 11.1227 13.51 10.806 13.1933C10.4894 12.8767 10.3115 12.4473 10.3115 11.9995C10.3115 11.5517 10.4894 11.1223 10.806 10.8056C11.1227 10.489 11.5521 10.3111 11.9999 10.3111C12.4476 10.3111 12.8771 10.489 13.1937 10.8056C13.5103 11.1223 13.6882 11.5517 13.6882 11.9995C13.6882 12.4473 13.5103 12.8767 13.1937 13.1933C12.8771 13.51 12.4476 13.6878 11.9999 13.6878ZM11.9999 8.62279C11.5521 8.62279 11.1227 8.44491 10.806 8.12828C10.4894 7.81166 10.3115 7.38222 10.3115 6.93444C10.3115 6.48666 10.4894 6.05723 10.806 5.7406C11.1227 5.42397 11.5521 5.24609 11.9999 5.24609C12.4476 5.24609 12.8771 5.42397 13.1937 5.7406C13.5103 6.05723 13.6882 6.48666 13.6882 6.93444C13.6882 7.38222 13.5103 7.81166 13.1937 8.12828C12.8771 8.44491 12.4476 8.62279 11.9999 8.62279Z" fill="#ECECEC"/>
</svg>
