<svg width="24" height="24" viewBox="0 0 24 24" fill="none" xmlns="http://www.w3.org/2000/svg">
<path d="M5.1144 19.0112C5.363 19.0112 5.58901 18.9284 5.89035 18.7551L9.55162 16.7813L13.5444 19.0188C13.8608 19.192 14.1922 19.2749 14.5162 19.2749C14.8326 19.2749 15.1415 19.1996 15.4202 19.0338L19.1643 16.9245C19.6842 16.6307 19.9102 16.2163 19.9102 15.6438V5.5263C19.9102 4.88595 19.5259 4.50174 18.8931 4.50174C18.6445 4.50174 18.4185 4.59968 18.1097 4.76542L14.3128 6.87479L10.3652 4.49421C10.079 4.32847 9.77009 4.24561 9.45368 4.24561C9.14481 4.24561 8.83594 4.32094 8.56473 4.47914L4.84319 6.59605C4.32338 6.88986 4.08984 7.28913 4.08984 7.86168V17.9942C4.08984 18.6346 4.47405 19.0112 5.1144 19.0112ZM8.8736 15.4328L5.77734 17.1354C5.72461 17.158 5.67941 17.1806 5.64174 17.1806C5.55134 17.1806 5.50614 17.1128 5.50614 17.0073V8.25342C5.50614 8.04248 5.58147 7.90688 5.77734 7.79388L8.625 6.14404C8.70787 6.09131 8.7832 6.05364 8.8736 6.00844V15.4328ZM10.305 15.4705V6.18924C10.3803 6.22691 10.4632 6.27211 10.5385 6.31731L13.695 8.22328V17.3689C13.5971 17.3162 13.4992 17.2635 13.3937 17.2032L10.305 15.4705ZM15.1339 17.4744V8.08015L18.2302 6.39265C18.2679 6.37005 18.3131 6.35498 18.3507 6.35498C18.4411 6.35498 18.5014 6.42278 18.5014 6.52072V15.2294C18.5014 15.4479 18.4261 15.5835 18.2227 15.6965L15.4805 17.2861C15.3675 17.3539 15.2469 17.4217 15.1339 17.4744Z" fill="#ECECEC"/>
</svg>
