<svg width="24" height="24" viewBox="0 0 24 24" fill="none" xmlns="http://www.w3.org/2000/svg">
<path d="M11.9923 19.4928C16.2637 19.4928 19.7894 15.9671 19.7894 11.7032C19.7894 7.43924 16.2562 3.91357 11.9847 3.91357C7.72077 3.91357 4.20264 7.43924 4.20264 11.7032C4.20264 15.9671 7.72831 19.4928 11.9923 19.4928ZM10.2746 11.9292C10.2746 9.54109 10.8848 7.14544 12.045 5.47301C15.3371 5.50314 17.9964 8.04946 18.2149 11.2889C16.5349 12.4565 14.1393 13.0743 11.7437 13.0743C11.2615 13.0743 10.7869 13.0517 10.3123 12.9914C10.2897 12.6449 10.2746 12.2908 10.2746 11.9292ZM8.82066 11.9292C8.82066 12.2004 8.82819 12.4641 8.84326 12.7353C7.6831 12.4565 6.62088 11.997 5.77713 11.3642C5.92027 8.63707 7.78104 6.39209 10.3123 5.69901C9.33294 7.45431 8.82066 9.69176 8.82066 11.9292ZM11.7437 14.5283C14.0338 14.5283 16.3315 13.9934 18.1019 12.9613C17.5294 15.8089 15.0282 17.9259 12.0149 17.9409C11.2992 16.9992 10.8095 15.7939 10.5308 14.4755C10.93 14.5057 11.3368 14.5283 11.7437 14.5283ZM5.92027 13.0818C6.83182 13.6242 7.89404 14.0084 9.02406 14.2495C9.24254 15.5001 9.64181 16.6753 10.2294 17.6848C8.06731 17.052 6.40995 15.2967 5.92027 13.0818Z" fill="white"/>
</svg>
