<svg width="16" height="16" viewBox="0 0 16 16" fill="none" xmlns="http://www.w3.org/2000/svg">
<g opacity="0.7">
<path d="M8.81586 6.84764V7.42413H3.62744V6.84764C3.62744 5.89239 4.78907 5.11816 6.22165 5.11816C7.65423 5.11816 8.81586 5.89239 8.81586 6.84764Z" stroke="#ECECEC" stroke-linecap="round" stroke-linejoin="round"/>
<path d="M13.1396 13.7652V4.68544C13.1396 3.33241 11.5908 2.23535 9.68062 2.23535C7.77042 2.23535 6.22168 3.33241 6.22168 4.68544V5.11781" stroke="#ECECEC" stroke-linecap="round" stroke-linejoin="round"/>
<path d="M6.22168 9.44157V9.15332" stroke="#ECECEC" stroke-linecap="round" stroke-linejoin="round"/>
<path d="M6.22168 13.7648V13.4766" stroke="#ECECEC" stroke-linecap="round" stroke-linejoin="round"/>
<path d="M6.22168 11.7474V11.1709" stroke="#ECECEC" stroke-linecap="round" stroke-linejoin="round"/>
<path d="M3.96475 9.16211L3.86646 9.43306" stroke="#ECECEC" stroke-linecap="round" stroke-linejoin="round"/>
<path d="M2.23525 13.4854L2.13696 13.7563" stroke="#ECECEC" stroke-linecap="round" stroke-linejoin="round"/>
<path d="M3.14955 11.1885L2.95239 11.7304" stroke="#ECECEC" stroke-linecap="round" stroke-linejoin="round"/>
<path d="M8.4813 9.16211L8.57959 9.43306" stroke="#ECECEC" stroke-linecap="round" stroke-linejoin="round"/>
<path d="M10.2108 13.4854L10.3091 13.7563" stroke="#ECECEC" stroke-linecap="round" stroke-linejoin="round"/>
<path d="M9.29649 11.1885L9.49365 11.7304" stroke="#ECECEC" stroke-linecap="round" stroke-linejoin="round"/>
</g>
</svg>
