<svg width="24" height="24" viewBox="0 0 24 24" fill="none" xmlns="http://www.w3.org/2000/svg">
<path d="M11.9925 18.9967C12.1884 18.9967 12.4747 18.846 12.7082 18.6953C16.9194 15.9833 19.6164 12.8041 19.6164 9.58733C19.6164 6.80748 17.6954 4.87891 15.2922 4.87891C13.793 4.87891 12.6705 5.70759 11.9925 6.94308C11.3296 5.70759 10.1996 4.87891 8.7004 4.87891C6.28969 4.87891 4.36865 6.80748 4.36865 9.58733C4.36865 12.8041 7.07317 15.9833 11.2769 18.6953C11.5104 18.846 11.7967 18.9967 11.9925 18.9967Z" fill="#FF3366"/>
<path d="M11.9925 18.9967C12.1884 18.9967 12.4747 18.846 12.7082 18.6953C16.9194 15.9833 19.6164 12.8041 19.6164 9.58733C19.6164 6.80748 17.6954 4.87891 15.2922 4.87891C13.793 4.87891 12.6705 5.70759 11.9925 6.94308C11.3296 5.70759 10.1996 4.87891 8.7004 4.87891C6.28969 4.87891 4.36865 6.80748 4.36865 9.58733C4.36865 12.8041 7.07317 15.9833 11.2769 18.6953C11.5104 18.846 11.7967 18.9967 11.9925 18.9967Z" fill="black" fill-opacity="0.2"/>
</svg>
