<svg width="24" height="24" viewBox="0 0 24 24" fill="none" xmlns="http://www.w3.org/2000/svg">
<path fill-rule="evenodd" clip-rule="evenodd" d="M3.50083 13.7872V13.5682C3.53295 12.9203 3.7406 12.2926 4.10236 11.7497C4.7045 11.0975 5.1167 10.2984 5.29571 9.43604C5.29571 8.76956 5.29571 8.09356 5.35393 7.42709C5.65469 4.21848 8.82728 2.00006 11.9611 2.00006H12.0387C15.1725 2.00006 18.345 4.21848 18.6555 7.42709C18.7137 8.09356 18.6555 8.76956 18.704 9.43604C18.8854 10.3004 19.2972 11.102 19.8974 11.7592C20.2618 12.2973 20.4698 12.9227 20.4989 13.5682V13.7777C20.5206 14.6481 20.2208 15.4969 19.6548 16.1675C18.907 16.9515 17.8921 17.4393 16.8024 17.5385C13.607 17.8813 10.383 17.8813 7.18762 17.5385C6.09914 17.4351 5.08576 16.948 4.33521 16.1675C3.778 15.4964 3.48224 14.6526 3.50083 13.7872Z" stroke="white" stroke-width="1.8" stroke-linecap="round" stroke-linejoin="round"/>
<path d="M9.55493 20.8518C10.0542 21.4785 10.7874 21.884 11.5922 21.9788C12.3971 22.0735 13.2072 21.8495 13.8433 21.3564C14.0389 21.2106 14.2149 21.041 14.3672 20.8518" stroke="white" stroke-width="1.8" stroke-linecap="round" stroke-linejoin="round"/>
</svg>
