<svg width="58" height="50" viewBox="0 0 58 50" fill="none" xmlns="http://www.w3.org/2000/svg">
<path d="M1.64476 7.23691L1.77634 10.0987C0.908463 11.3604 0.510376 12.8864 0.651338 14.4112L2.74673 37.4376C2.89527 39.0722 3.64945 40.5922 4.8612 41.6993C6.07295 42.8063 7.65475 43.4205 9.29608 43.4211H29.6053V40.1316H9.29608C8.47544 40.1309 7.68473 39.8234 7.07916 39.2695C6.47359 38.7157 6.09691 37.9555 6.02305 37.1382L3.92765 14.1119C3.88653 13.6568 3.94067 13.1981 4.08663 12.7651C4.2326 12.3321 4.46718 11.9342 4.77542 11.5969C5.08366 11.2596 5.4588 10.9902 5.87694 10.8058C6.29507 10.6215 6.74702 10.5264 7.20397 10.5264H45.4277C45.8846 10.5264 46.3366 10.6215 46.7547 10.8058C47.1728 10.9902 47.548 11.2596 47.8562 11.5969C48.1645 11.9342 48.399 12.3321 48.545 12.7651C48.691 13.1981 48.7451 13.6568 48.704 14.1119L47.829 23.6843H51.1349L51.977 14.4112C52.0597 13.5011 51.9519 12.5836 51.6604 11.7174C51.3689 10.8512 50.9001 10.0553 50.2839 9.38029C49.6677 8.70531 48.9177 8.16612 48.0815 7.79708C47.2454 7.42805 46.3416 7.23727 45.4277 7.23691H32.329C30.5843 7.23653 28.9112 6.54315 27.6777 5.30927L24.954 2.58559C23.7205 1.35171 22.0474 0.658332 20.3027 0.657959H8.22371C6.47886 0.657959 4.80548 1.3511 3.57169 2.58489C2.3379 3.81868 1.64476 5.49206 1.64476 7.23691ZM20.3027 3.94743C21.175 3.94762 22.0116 4.29431 22.6283 4.91125L24.954 7.23691H7.20397C6.4145 7.23691 5.65792 7.37506 4.95726 7.63164L4.93423 7.17112C4.95146 6.31015 5.30561 5.49026 5.92065 4.88752C6.53569 4.28478 7.36256 3.94726 8.22371 3.94743H20.3027Z" fill="#31353E"/>
<path d="M52.7161 44.2306L42.8862 34.5173L40.9398 36.4872L50.7696 46.2004L52.7161 44.2306Z" fill="#31353E"/>
<path d="M56.4709 46.8396L48.8232 39.2827C48.7806 39.2407 48.712 39.2411 48.6699 39.2836L45.7753 42.213C45.7333 42.2556 45.7337 42.3242 45.7762 42.3663L53.4239 49.9232C53.4665 49.9653 53.5351 49.9648 53.5772 49.9223L56.4718 46.9929C56.5138 46.9503 56.5134 46.8817 56.4709 46.8396Z" fill="#31353E"/>
<path fill-rule="evenodd" clip-rule="evenodd" d="M46.4187 27.1568C46.4187 33.9193 40.9366 39.4013 34.1742 39.4013C27.4117 39.4013 21.9297 33.9193 21.9297 27.1568C21.9297 20.3944 27.4117 14.9124 34.1742 14.9124C40.9366 14.9124 46.4187 20.3944 46.4187 27.1568ZM44.4206 27.1568C44.4206 32.8158 39.8331 37.4033 34.174 37.4033C28.515 37.4033 23.9275 32.8158 23.9275 27.1568C23.9275 21.4977 28.515 16.9102 34.174 16.9102C39.8331 16.9102 44.4206 21.4977 44.4206 27.1568Z" fill="#31353E"/>
</svg>
