<svg width="94" height="94" viewBox="0 0 94 94" fill="none" xmlns="http://www.w3.org/2000/svg">
<circle cx="47" cy="47" r="47" fill="#FD8F00"/>
<path d="M49.2858 33.292H44.7163V35.5767C44.7163 36.1827 44.957 36.7638 45.3855 37.1923C45.814 37.6207 46.3951 37.8614 47.001 37.8614C47.607 37.8614 48.1881 37.6207 48.6166 37.1923C49.045 36.7638 49.2858 36.1827 49.2858 35.5767V33.292Z" fill="white"/>
<path fill-rule="evenodd" clip-rule="evenodd" d="M33.292 24.1528V28.7223H35.5767V35.5764C35.5767 38.6062 36.7803 41.5118 38.9226 43.6542C41.065 45.7965 43.9706 47.0001 47.0003 47.0001C43.9706 47.0001 41.065 48.2036 38.9226 50.346C36.7803 52.4883 35.5767 55.3939 35.5767 58.4237V65.2778H33.292V69.8473H60.7087V65.2778H58.4239V58.4237C58.4239 55.3939 57.2204 52.4883 55.078 50.346C52.9357 48.2036 50.0301 47.0001 47.0003 47.0001C48.5005 47.0001 49.986 46.7046 51.372 46.1305C52.7579 45.5564 54.0173 44.7149 55.078 43.6542C56.1388 42.5934 56.9803 41.334 57.5544 39.9481C58.1285 38.5621 58.4239 37.0766 58.4239 35.5764V28.7223H60.7087V24.1528H33.292ZM40.1462 28.7223H53.8545V35.5764C53.8545 37.3943 53.1324 39.1377 51.847 40.4231C50.5616 41.7085 48.8182 42.4306 47.0003 42.4306C45.1825 42.4306 43.4391 41.7085 42.1537 40.4231C40.8683 39.1377 40.1462 37.3943 40.1462 35.5764V28.7223ZM40.1462 58.4237V65.2778H53.8545V58.4237C53.8545 56.6058 53.1324 54.8624 51.847 53.577C50.5616 52.2916 48.8182 51.5695 47.0003 51.5695C45.1825 51.5695 43.4391 52.2916 42.1537 53.577C40.8683 54.8624 40.1462 56.6058 40.1462 58.4237Z" fill="white"/>
</svg>
