<svg width="10" height="10" viewBox="0 0 10 10" fill="none" xmlns="http://www.w3.org/2000/svg">
<path d="M1.36405 5.375H4.42766V8.43862C4.42766 8.75 4.6838 9.01116 5.00021 9.01116C5.31662 9.01116 5.57275 8.75 5.57275 8.43862V5.375H8.63637C8.94775 5.375 9.20891 5.11886 9.20891 4.80246C9.20891 4.48605 8.94775 4.22991 8.63637 4.22991H5.57275V1.16629C5.57275 0.854911 5.31662 0.59375 5.00021 0.59375C4.6838 0.59375 4.42766 0.854911 4.42766 1.16629V4.22991H1.36405C1.05266 4.22991 0.791504 4.48605 0.791504 4.80246C0.791504 5.11886 1.05266 5.375 1.36405 5.375Z" fill="#ECECEC"/>
</svg>
