<svg width="24" height="24" viewBox="0 0 24 24" fill="none" xmlns="http://www.w3.org/2000/svg">
<path d="M12 19.8178C16.4374 19.8178 20.113 16.1501 20.113 11.7048C20.113 7.2674 16.4374 3.5918 11.9921 3.5918C7.55471 3.5918 3.88696 7.2674 3.88696 11.7048C3.88696 16.1501 7.56256 19.8178 12 19.8178ZM9.84018 11.1001L9.03909 9.922C8.59142 9.25442 7.86886 9.0031 7.13846 9.35652L6.52586 9.66282C6.02321 9.90629 5.81901 10.2911 5.81901 10.998C5.81901 11.5556 5.65408 11.8226 5.32422 11.8226C5.26139 11.8226 5.19856 11.8148 5.14358 11.7991C5.14358 11.7676 5.14358 11.7362 5.14358 11.7048C5.14358 7.95853 8.24585 4.84841 11.9921 4.84841C12.534 4.84841 13.0603 4.9191 13.5708 5.0369C13.3194 5.49243 12.8953 5.72804 12.8953 6.37206C12.8953 7.54228 14.4504 7.45589 14.4504 8.75963C14.4504 9.54501 13.8299 9.91414 12.4634 9.91414C11.6701 9.91414 11.1282 10.3304 11.1282 10.9508C11.1282 11.3671 11.3403 11.6498 11.8036 11.8933C12.0471 12.0033 12.1414 12.1289 12.1414 12.3017C12.1414 12.5059 11.9921 12.6159 11.7487 12.6159C11.2303 12.6159 10.5549 12.1603 9.84018 11.1001ZM12 18.5612C8.62283 18.5612 5.77189 16.0401 5.23782 12.8044C5.27709 12.8044 5.31636 12.8044 5.36349 12.8044C6.19599 12.8044 6.76147 12.0897 6.76147 10.998C6.76147 10.6603 6.81645 10.5503 7.05206 10.4403L7.55471 10.2047C7.82174 10.0712 8.06521 10.1733 8.22229 10.4089L9.10977 11.7127C9.99725 13.0086 10.9004 13.5348 11.7251 13.5348C12.5262 13.5348 13.0131 13.0478 13.0131 12.2703C13.0131 11.8226 12.7854 11.4299 12.4162 11.1943C12.2906 11.1079 12.2199 11.0687 12.2199 10.9901C12.212 10.9037 12.2906 10.8645 12.4241 10.8645C14.3797 10.8645 15.4007 10.1498 15.4007 8.75963C15.4007 6.92183 13.8378 6.81973 13.8378 6.3485C13.8378 6.03434 14.254 5.89297 14.4975 5.33535C17.0343 6.3485 18.8564 8.83817 18.8564 11.7048C18.8564 12.4352 18.7386 13.1499 18.5187 13.8096C18.1103 13.4798 17.7804 13.3384 17.4034 13.3384C17.0971 13.3384 16.9322 13.417 16.7516 13.4719C16.6023 13.5269 16.5317 13.4641 16.5081 13.3227C16.4217 12.7337 16.0604 12.5138 15.4792 12.5138H15.0708C14.5996 12.5138 14.2148 12.7572 13.9242 13.2049L13.7985 13.4012C13.5943 13.7154 13.4215 13.9667 13.2566 14.1317C13.0917 14.273 12.9582 14.3437 12.6361 14.4458L12.2749 14.5558C11.733 14.7285 11.5602 15.2076 11.7094 15.7417L12.0942 17.069C12.2277 17.5559 12.5183 17.8073 12.9896 17.8073C13.1938 17.8073 13.4451 17.7366 13.7121 17.6109L13.8299 17.5481C14.0027 17.4617 14.1362 17.4303 14.2776 17.4303C14.576 17.4303 14.7881 17.5795 15.008 17.8465C14.097 18.302 13.076 18.5612 12 18.5612ZM14.2619 16.5192C14.0184 16.5192 13.7357 16.6056 13.4294 16.7313L13.1938 16.8177C13.0681 16.8648 12.9817 16.8569 12.9503 16.7391L12.6126 15.6082C12.5812 15.4904 12.6283 15.4197 12.7461 15.3804C13.343 15.2076 13.665 14.9799 13.8692 14.7835C14.1834 14.4772 14.4425 14.0453 14.6703 13.7154C14.8117 13.4955 14.9216 13.417 15.063 13.417H15.4714C15.5813 13.417 15.6049 13.4562 15.6285 13.5426C15.7384 14.0924 16.0369 14.4144 16.5788 14.4144C16.9715 14.4144 17.16 14.2495 17.4034 14.2495C17.5998 14.2495 17.8197 14.3751 18.1574 14.6971C17.6233 15.781 16.7987 16.7156 15.8012 17.391C15.4478 16.9433 15.0002 16.5192 14.2619 16.5192Z" fill="#ECECEC"/>
</svg>
