<svg width="24" height="24" viewBox="0 0 24 24" fill="none" xmlns="http://www.w3.org/2000/svg">
<path d="M9.54545 3H4.63636C4.20252 3.00049 3.78659 3.17305 3.47982 3.47982C3.17305 3.78659 3.00049 4.20252 3 4.63636V9.54545C3.00049 9.9793 3.17305 10.3952 3.47982 10.702C3.78659 11.0088 4.20252 11.1813 4.63636 11.1818H9.54545C9.9793 11.1813 10.3952 11.0088 10.702 10.702C11.0088 10.3952 11.1813 9.9793 11.1818 9.54545V4.63636C11.1813 4.20252 11.0088 3.78659 10.702 3.47982C10.3952 3.17305 9.9793 3.00049 9.54545 3ZM9.54545 9.54545H4.63636V4.63636H9.54545L9.54648 9.54545H9.54545ZM9.54545 12.8182H4.63636C4.20252 12.8187 3.78659 12.9912 3.47982 13.298C3.17305 13.6048 3.00049 14.0207 3 14.4545V19.3636C3.00049 19.7975 3.17305 20.2134 3.47982 20.5202C3.78659 20.827 4.20252 20.9995 4.63636 21H9.54545C9.9793 20.9995 10.3952 20.827 10.702 20.5202C11.0088 20.2134 11.1813 19.7975 11.1818 19.3636V14.4545C11.1813 14.0207 11.0088 13.6048 10.702 13.298C10.3952 12.9912 9.9793 12.8187 9.54545 12.8182ZM9.54545 19.3636H4.63636V14.4545H9.54545L9.54648 19.3636H9.54545ZM19.3636 3H14.4545C14.0207 3.00049 13.6048 3.17305 13.298 3.47982C12.9912 3.78659 12.8187 4.20252 12.8182 4.63636V9.54545C12.8187 9.9793 12.9912 10.3952 13.298 10.702C13.6048 11.0088 14.0207 11.1813 14.4545 11.1818H19.3636C19.7975 11.1813 20.2134 11.0088 20.5202 10.702C20.827 10.3952 20.9995 9.9793 21 9.54545V4.63636C20.9995 4.20252 20.827 3.78659 20.5202 3.47982C20.2134 3.17305 19.7975 3.00049 19.3636 3ZM19.3636 9.54545H14.4545V4.63636H19.3636L19.3647 9.54545H19.3636ZM12.8182 16.9091V13.6364C12.8182 13.4194 12.9044 13.2113 13.0578 13.0578C13.2113 12.9044 13.4194 12.8182 13.6364 12.8182C13.8534 12.8182 14.0615 12.9044 14.2149 13.0578C14.3683 13.2113 14.4545 13.4194 14.4545 13.6364V16.9091C14.4545 17.1261 14.3683 17.3342 14.2149 17.4876C14.0615 17.6411 13.8534 17.7273 13.6364 17.7273C13.4194 17.7273 13.2113 17.6411 13.0578 17.4876C12.9044 17.3342 12.8182 17.1261 12.8182 16.9091ZM21 15.2727C21 15.4897 20.9138 15.6978 20.7604 15.8513C20.6069 16.0047 20.3988 16.0909 20.1818 16.0909H17.7273V20.1818C17.7273 20.3988 17.6411 20.6069 17.4876 20.7604C17.3342 20.9138 17.1261 21 16.9091 21H13.6364C13.4194 21 13.2113 20.9138 13.0578 20.7604C12.9044 20.6069 12.8182 20.3988 12.8182 20.1818C12.8182 19.9648 12.9044 19.7567 13.0578 19.6033C13.2113 19.4498 13.4194 19.3636 13.6364 19.3636H16.0909V13.6364C16.0909 13.4194 16.1771 13.2113 16.3305 13.0578C16.484 12.9044 16.6921 12.8182 16.9091 12.8182C17.1261 12.8182 17.3342 12.9044 17.4876 13.0578C17.6411 13.2113 17.7273 13.4194 17.7273 13.6364V14.4545H20.1818C20.3988 14.4545 20.6069 14.5407 20.7604 14.6942C20.9138 14.8476 21 15.0557 21 15.2727ZM21 18.5455V20.1818C21 20.3988 20.9138 20.6069 20.7604 20.7604C20.6069 20.9138 20.3988 21 20.1818 21C19.9648 21 19.7567 20.9138 19.6033 20.7604C19.4498 20.6069 19.3636 20.3988 19.3636 20.1818V18.5455C19.3636 18.3285 19.4498 18.1204 19.6033 17.9669C19.7567 17.8135 19.9648 17.7273 20.1818 17.7273C20.3988 17.7273 20.6069 17.8135 20.7604 17.9669C20.9138 18.1204 21 18.3285 21 18.5455Z" fill="#605E5C"/>
</svg>
