<svg width="24" height="24" viewBox="0 0 24 24" fill="none" xmlns="http://www.w3.org/2000/svg">
<g clip-path="url(#clip0_8021_73890)">
<path d="M24 10.9807C24 9.31612 22.6506 7.9668 20.9861 7.9668C20.1524 7.9668 19.3993 8.30666 18.8539 8.85378C17.1684 7.76674 15.0152 7.07401 12.6503 6.96594C12.6518 5.96183 13.1015 5.02581 13.8849 4.39737C14.6696 3.76786 15.6832 3.53211 16.6649 3.75016L16.7997 3.7801C16.7984 3.81389 16.7946 3.84701 16.7946 3.88113C16.7946 5.27061 17.921 6.39703 19.3105 6.39703C20.7 6.39703 21.8264 5.27061 21.8264 3.88113C21.8264 2.4916 20.7 1.36523 19.3105 1.36523C18.4171 1.36523 17.6344 1.83227 17.188 2.53416L16.9469 2.48059C15.578 2.17643 14.1651 2.50528 13.0711 3.38293C11.9784 4.25953 11.3513 5.56529 11.3499 6.96594C8.98554 7.07395 6.83268 7.76635 5.14741 8.85289C4.60191 8.30565 3.84768 7.96674 3.01387 7.96674C1.34938 7.9668 0 9.31612 0 10.9807C0 12.1404 0.656258 13.1452 1.61668 13.649C1.54374 14.0221 1.50537 14.4036 1.50537 14.7919C1.50537 19.1225 6.20396 22.6332 12 22.6332C17.796 22.6332 22.4946 19.1225 22.4946 14.7919C22.4946 14.4038 22.4562 14.0225 22.3834 13.6496C23.3439 13.1457 24 12.1405 24 10.9807ZM19.3105 2.66574C19.9807 2.66574 20.526 3.21097 20.526 3.88119C20.526 4.55135 19.9807 5.09658 19.3105 5.09658C18.6403 5.09658 18.0951 4.55135 18.0951 3.88119C18.0951 3.21097 18.6404 2.66574 19.3105 2.66574ZM1.30045 10.9807C1.30045 10.0359 2.06908 9.26725 3.01387 9.26725C3.41852 9.26725 3.78993 9.409 4.08299 9.6447C3.16635 10.4311 2.4567 11.3555 2.01608 12.3705C1.58334 12.0597 1.30045 11.5532 1.30045 10.9807ZM18.6424 19.2947C16.8835 20.6089 14.5245 21.3327 12 21.3327C9.47553 21.3327 7.11652 20.6089 5.35764 19.2947C3.71213 18.0652 2.80588 16.4661 2.80588 14.7919C2.80588 13.1176 3.71213 11.5185 5.35764 10.289C7.11652 8.97481 9.47553 8.25103 12 8.25103C14.5245 8.25103 16.8835 8.97481 18.6424 10.289C20.2879 11.5185 21.1942 13.1176 21.1942 14.7919C21.1941 16.4661 20.2879 18.0652 18.6424 19.2947ZM21.9835 12.3697C21.5428 11.3549 20.8332 10.4308 19.9167 9.64447C20.2098 9.40878 20.5814 9.26725 20.9861 9.26725C21.9309 9.26725 22.6995 10.0359 22.6995 10.9807C22.6995 11.5531 22.4163 12.059 21.9835 12.3697Z" fill="#ECECEC"/>
<path d="M8.16696 14.3344C8.92484 14.3344 9.53923 13.72 9.53923 12.9621C9.53923 12.2042 8.92484 11.5898 8.16696 11.5898C7.40907 11.5898 6.79468 12.2042 6.79468 12.9621C6.79468 13.72 7.40907 14.3344 8.16696 14.3344Z" fill="#ECECEC"/>
<path d="M15.833 14.3344C16.5909 14.3344 17.2052 13.72 17.2052 12.9621C17.2052 12.2042 16.5909 11.5898 15.833 11.5898C15.0751 11.5898 14.4607 12.2042 14.4607 12.9621C14.4607 13.72 15.0751 14.3344 15.833 14.3344Z" fill="#ECECEC"/>
<path d="M15.2518 16.2961C14.2845 17.1775 13.0304 17.6628 11.7206 17.6628C10.2499 17.6628 8.88733 17.0701 7.88384 15.9939C7.63899 15.7312 7.22753 15.7169 6.96486 15.9618C6.70218 16.2067 6.68783 16.6182 6.93274 16.8808C8.16678 18.2042 9.91193 18.9632 11.7207 18.9632C13.3552 18.9632 14.9203 18.3574 16.1277 17.2574C16.3931 17.0155 16.4123 16.6042 16.1704 16.3388C15.9286 16.0736 15.5176 16.0541 15.2518 16.2961Z" fill="#ECECEC"/>
</g>
<defs>
<clipPath id="clip0_8021_73890">
<rect width="24" height="24" fill="white"/>
</clipPath>
</defs>
</svg>
