<svg width="20" height="20" viewBox="0 0 20 20" fill="none" xmlns="http://www.w3.org/2000/svg">
<path d="M9.99992 4.31166C8.49152 4.31166 7.0449 4.91087 5.9783 5.97747C4.9117 7.04408 4.31249 8.4907 4.31249 9.9991C4.31249 10.1731 4.24335 10.3401 4.12028 10.4631C3.99721 10.5862 3.83029 10.6553 3.65624 10.6553C3.4822 10.6553 3.31528 10.5862 3.19221 10.4631C3.06914 10.3401 3 10.1731 3 9.9991C3.00014 8.79975 3.30844 7.62055 3.89533 6.5746C4.48222 5.52865 5.32801 4.65104 6.35158 4.02594C7.37515 3.40084 8.54217 3.04922 9.7407 3.0048C10.9392 2.96039 12.1291 3.22467 13.1961 3.77229C14.2631 4.31992 15.1716 5.13252 15.8343 6.13217C16.4969 7.13181 16.8917 8.28496 16.9806 9.48101C17.0695 10.6771 16.8496 11.8759 16.342 12.9625C15.8344 14.0492 15.0561 14.9872 14.0818 15.6865H15.0311C15.2052 15.6865 15.3721 15.7557 15.4952 15.8787C15.6182 16.0018 15.6874 16.1687 15.6874 16.3428C15.6874 16.5168 15.6182 16.6837 15.4952 16.8068C15.3721 16.9299 15.2052 16.999 15.0311 16.999H12.4061C12.2321 16.999 12.0652 16.9299 11.9421 16.8068C11.819 16.6837 11.7499 16.5168 11.7499 16.3428V13.7178C11.7499 13.5438 11.819 13.3768 11.9421 13.2538C12.0652 13.1307 12.2321 13.0616 12.4061 13.0616C12.5802 13.0616 12.7471 13.1307 12.8702 13.2538C12.9932 13.3768 13.0624 13.5438 13.0624 13.7178V14.7923C14.0992 14.1301 14.8934 13.1495 15.3257 11.9976C15.758 10.8458 15.8052 9.58483 15.4601 8.40392C15.1151 7.22301 14.3964 6.18583 13.4119 5.44799C12.4274 4.71015 11.2302 4.31143 9.99992 4.31166Z" fill="#ECECEC"/>
<path d="M12.1875 9.999C12.1875 10.5792 11.957 11.1355 11.5468 11.5458C11.1365 11.956 10.5801 12.1865 9.99998 12.1865C9.41982 12.1865 8.86343 11.956 8.4532 11.5458C8.04297 11.1355 7.8125 10.5792 7.8125 9.999C7.8125 9.41884 8.04297 8.86245 8.4532 8.45222C8.86343 8.04199 9.41982 7.81152 9.99998 7.81152C10.5801 7.81152 11.1365 8.04199 11.5468 8.45222C11.957 8.86245 12.1875 9.41884 12.1875 9.999ZM10.875 9.999C10.875 9.76694 10.7828 9.54438 10.6187 9.38029C10.4546 9.2162 10.232 9.12401 9.99998 9.12401C9.76791 9.12401 9.54536 9.2162 9.38126 9.38029C9.21717 9.54438 9.12499 9.76694 9.12499 9.999C9.12499 10.2311 9.21717 10.4536 9.38126 10.6177C9.54536 10.7818 9.76791 10.874 9.99998 10.874C10.232 10.874 10.4546 10.7818 10.6187 10.6177C10.7828 10.4536 10.875 10.2311 10.875 9.999Z" fill="#ECECEC"/>
</svg>
