<?xml version="1.0" encoding="UTF-8"?>
<svg width="40px" height="40px" viewBox="0 0 40 40" version="1.1" xmlns="http://www.w3.org/2000/svg" xmlns:xlink="http://www.w3.org/1999/xlink">
    <title>Ellipse 95</title>
    <defs>
        <path d="M19,2.06452 L9.825,2.06452 L8.815,0.25806 C8.7712,0.17968 8.7081,0.11458 8.6322,0.06928 C8.5563,0.02399 8.4702,0 8.3825,0 L1,0 C0.44875,0 0,0.46323 0,1.03226 L0,12.9032 C0,13.4723 0.44875,13.9355 1,13.9355 L10.3988,13.9355 L11.14,15.6903 C11.1789,15.7824 11.2431,15.8608 11.3246,15.9158 C11.4061,15.9708 11.5014,16 11.5988,16 L19,16 C19.5513,16 20,15.5368 20,14.9677 L20,3.09677 C20,2.52774 19.5513,2.06452 19,2.06452 Z M1,1.03226 L8.0938,1.03226 L14.7325,12.9032 L1,12.9032 L1,1.03226 Z M13.6688,8.9355 L14.4738,6.6271 C14.51,6.5252 14.5425,6.3794 14.5712,6.191 L14.5913,6.191 C14.625,6.3974 14.6562,6.5432 14.685,6.6271 L15.5988,9.2245 L13.83,9.2245 L13.6688,8.9355 Z M13.4812,13.9355 L11.8463,14.7794 L11.49,13.9355 L13.4812,13.9355 Z M19,14.9677 L13.7175,14.9677 L15.8225,13.8813 L15.8212,13.8787 C15.8825,13.8478 15.9369,13.8042 15.9811,13.7507 C16.0253,13.6971 16.0583,13.6348 16.0781,13.5675 C16.098,13.5002 16.1041,13.4294 16.0963,13.3595 C16.0884,13.2896 16.0667,13.2221 16.0325,13.1613 L14.225,9.929 L15.8413,9.929 L16.4587,11.6387 L17.3225,11.6387 L15.0175,5.39226 L14.1813,5.39226 L13.19,8.0787 L10.4025,3.09677 L19,3.09677 L19,14.9677 Z" id="path-1"></path>
    </defs>
    <g id="Page-1" stroke="none" stroke-width="1" fill="none" fill-rule="evenodd">
        <g id="Group-3797">
            <circle id="Oval" fill="#FAFAFA" fill-rule="nonzero" cx="20" cy="20" r="20"></circle>
            <path d="M29,14.06452 L19.825,14.06452 L18.815,12.25806 C18.7712,12.17968 18.7081,12.11458 18.6322,12.06928 C18.5563,12.02399 18.4702,12 18.3825,12 L11,12 C10.44875,12 10,12.46323 10,13.03226 L10,24.9032 C10,25.4723 10.44875,25.9355 11,25.9355 L20.3988,25.9355 L21.14,27.6903 C21.1789,27.7824 21.2431,27.8608 21.3246,27.9158 C21.4061,27.9708 21.5014,28 21.5988,28 L29,28 C29.5513,28 30,27.5368 30,26.9677 L30,15.09677 C30,14.52774 29.5513,14.06452 29,14.06452 Z M11,13.03226 L18.0938,13.03226 L24.7325,24.9032 L11,24.9032 L11,13.03226 Z M23.6688,20.9355 L24.4738,18.6271 C24.51,18.5252 24.5425,18.3794 24.5712,18.191 L24.5913,18.191 C24.625,18.3974 24.6562,18.5432 24.685,18.6271 L25.5988,21.2245 L23.83,21.2245 L23.6688,20.9355 Z M23.4812,25.9355 L21.8463,26.7794 L21.49,25.9355 L23.4812,25.9355 Z M29,26.9677 L23.7175,26.9677 L25.8225,25.8813 L25.8212,25.8787 C25.8825,25.8478 25.9369,25.8042 25.9811,25.7507 C26.0253,25.6971 26.0583,25.6348 26.0781,25.5675 C26.098,25.5002 26.1041,25.4294 26.0963,25.3595 C26.0884,25.2896 26.0667,25.2221 26.0325,25.1613 L24.225,21.929 L25.8413,21.929 L26.4587,23.6387 L27.3225,23.6387 L25.0175,17.39226 L24.1813,17.39226 L23.19,20.0787 L20.4025,15.09677 L29,15.09677 L29,26.9677 Z" id="Shape" fill="#5B616E" fill-rule="nonzero"></path>
            <g id="Clipped" transform="translate(10.000000, 12.000000)">
                <mask id="mask-2" fill="white">
                    <use xlink:href="#path-1"></use>
                </mask>
                <g id="Shape"></g>
                <path d="M9.825,2.06452 L-1.521897,8.4086 L2.19945,15.0645 L9.825,15.0645 L9.825,2.06452 Z M8.815,0.25806 L20.1619,-6.08606 L20.1609,-6.0878 L8.815,0.25806 Z M8.3825,0 L8.3963,-13 L8.3825,-13 L8.3825,0 Z M10.3988,13.9355 L22.3742,8.877 L19.0197,0.93548 L10.3988,0.93548 L10.3988,13.9355 Z M11.14,15.6903 L-0.83547,20.7488 L-0.83378,20.7528 L11.14,15.6903 Z M11.5988,15.99999 L11.5988,2.99999 L11.5855,2.99999 L11.5988,15.99999 Z M1,1.03226 L1,-11.96774 L-12,-11.96774 L-12,1.03226 L1,1.03226 Z M8.0938,1.03226 L19.44,-5.31304 L15.7184,-11.96774 L8.0938,-11.96774 L8.0938,1.03226 Z M14.7325,12.9032 L14.7325,25.9032 L36.8975,25.9032 L26.0787,6.5579 L14.7325,12.9032 Z M1,12.9032 L-12,12.9032 L-12,25.9032 L1,25.9032 L1,12.9032 Z M13.6688,8.9355 L1.39373,4.65484 L-0.52926,10.1691 L2.31599,15.2691 L13.6688,8.9355 Z M14.4738,6.6271 L2.2252,2.2713 L2.21185,2.30884 L2.19873,2.34645 L14.4738,6.6271 Z M14.5712,6.191 L14.5712,-6.80903 L3.40468,-6.80903 L1.72004,4.22973 L14.5712,6.191 Z M14.5913,6.191 L27.4209,4.09361 L25.6386,-6.80903 L14.5913,-6.80903 L14.5913,6.191 Z M14.685,6.6271 L2.38744,10.8426 L2.40438,10.892 L2.42171,10.9412 L14.685,6.6271 Z M15.5988,9.2245 L15.5988,22.2245 L33.953,22.2245 L27.862,4.9104 L15.5988,9.2245 Z M13.83,9.2245 L2.47724,15.5582 L6.19637,22.2245 L13.83,22.2245 L13.83,9.2245 Z M13.4812,13.9355 L19.4436,25.4876 L13.4812,0.93548 L13.4812,13.9355 Z M11.8463,14.7794 L-0.13025,19.8354 L5.3309,32.7715 L17.8086,26.3314 L11.8463,14.7794 Z M11.49,13.9355 L11.49,0.93548 L-8.10907,0.93548 L-0.4865,18.9915 L11.49,13.9355 Z M19,14.9677 L19,27.9677 L32,27.9677 L32,14.9677 L19,14.9677 Z M13.7175,14.9677 L7.75514,3.41567 L13.7175,27.9677 L13.7175,14.9677 Z M15.8225,13.8813 L21.7849,25.4334 L33.0515,19.6183 L27.5201,8.2097 L15.8225,13.8813 Z M15.8212,13.8787 L9.9653,2.27233 L-1.458853,8.0363 L4.12367,19.5503 L15.8212,13.8787 Z M16.0325,13.1613 L4.68609,19.5063 L4.69383,19.5201 L4.70161,19.534 L16.0325,13.1613 Z M14.225,9.929 L14.225,-3.070968 L-7.93926,-3.070968 L2.87859,16.274 L14.225,9.929 Z M15.8413,9.929 L28.0682,5.51292 L24.9679,-3.070968 L15.8413,-3.070968 L15.8413,9.929 Z M16.4587,11.6387 L4.23181,16.0548 L7.33213,24.6387 L16.4587,24.6387 L16.4587,11.6387 Z M17.3225,11.6387 L17.3225,24.6387 L35.9765,24.6387 L29.5186,7.1382 L17.3225,11.6387 Z M15.0175,5.39226 L27.2136,0.89177 L24.0772,-7.60774 L15.0175,-7.60774 L15.0175,5.39226 Z M14.1813,5.39226 L14.1813,-7.60774 L5.12128,-7.60774 L1.98501,0.89207 L14.1813,5.39226 Z M13.19,8.0787 L1.84511,14.4264 L15.6203,39.0461 L25.3862,12.5789 L13.19,8.0787 Z M10.4025,3.09677 L10.4025,-9.90323 L-11.76786,-9.90323 L-0.94239,9.4445 L10.4025,3.09677 Z M19,3.09677 L32,3.09677 L32,-9.90323 L19,-9.90323 L19,3.09677 Z M19,-10.93548 L9.825,-10.93548 L9.825,15.0645 L19,15.0645 L19,-10.93548 Z M21.1719,-4.279609 L20.1619,-6.08606 L-2.531897,6.6022 L-1.521897,8.4086 L21.1719,-4.279609 Z M20.1609,-6.0878 C19.0234,-8.12162 17.3587,-9.86211 15.2934,-11.09444 L1.97103,11.233 C0.05754,10.0913 -1.481076,8.481 -2.530927,6.6039 L20.1609,-6.0878 Z M15.2934,-11.09444 C13.2247,-12.32878 10.8447,-12.9974 8.3963,-12.99999 L8.3687,13.00001 C6.09563,12.9976 3.88789,12.3768 1.97103,11.233 L15.2934,-11.09444 Z M8.3825,-13 L1,-13 L1,13 L8.3825,13 L8.3825,-13 Z M1,-13 C-7.11691,-13 -13,-6.32434 -13,1.03226 L13,1.03226 C13,7.2508 8.0144,13 1,13 L1,-13 Z M-13,1.03226 L-13,12.9032 L13,12.9032 L13,1.03226 L-13,1.03226 Z M-13,12.9032 C-13,20.2598 -7.11691,26.9355 1,26.9355 L1,0.93548 C8.0144,0.93548 13,6.6847 13,12.9032 L-13,12.9032 Z M1,26.9355 L10.3988,26.9355 L10.3988,0.93548 L1,0.93548 L1,26.9355 Z M-1.576718,18.994 L-0.83547,20.7488 L23.1155,10.6319 L22.3742,8.877 L-1.576718,18.994 Z M-0.83378,20.7528 C0.16777,23.1217 1.84492,25.2014 4.05111,26.6906 L18.5981,5.14103 C20.6413,6.5203 22.1901,8.4432 23.1138,10.6279 L-0.83378,20.7528 Z M4.05111,26.6906 C6.26245,28.1834 8.8912,29.0028 11.612,29.0000035 L11.5855,3.00000351 C14.1116,2.99744 16.5497,3.75831 18.5981,5.14103 L4.05111,26.6906 Z M11.5988,29 L19,29 L19,3 L11.5988,3 L11.5988,29 Z M19,29 C27.1169,29 33,22.3243 33,14.9677 L7,14.9677 C7,8.7492 11.9856,3 19,3 L19,29 Z M33,14.9677 L33,3.09677 L7,3.09677 L7,14.9677 L33,14.9677 Z M33,3.09677 C33,-4.259834 27.1169,-10.93548 19,-10.93548 L19,15.0645 C11.9856,15.0645 7,9.3153 7,3.09677 L33,3.09677 Z M1,14.0323 L8.0938,14.0323 L8.0938,-11.96774 L1,-11.96774 L1,14.0323 Z M-3.25249,7.3776 L3.38626,19.2485 L26.0787,6.5579 L19.44,-5.31304 L-3.25249,7.3776 Z M14.7325,-0.09677 L1,-0.09677 L1,25.9032 L14.7325,25.9032 L14.7325,-0.09677 Z M14,12.9032 L14,1.03226 L-12,1.03226 L-12,12.9032 L14,12.9032 Z M25.9438,13.2161 L26.7488,10.9077 L2.19873,2.34645 L1.39373,4.65484 L25.9438,13.2161 Z M26.7223,10.9829 C27.1692,9.7261 27.3495,8.6305 27.4225,8.1522 L1.72004,4.22973 C1.73849,4.10882 1.77459,3.89123 1.83802,3.60729 C1.89658,3.3451 2.01352,2.86653 2.2252,2.2713 L26.7223,10.9829 Z M14.5712,19.191 L14.5913,19.191 L14.5913,-6.80903 L14.5712,-6.80903 L14.5712,19.191 Z M1.76155,8.2883 C1.79614,8.4999 1.9673,9.6169 2.38744,10.8426 L26.9826,2.41164 C27.1085,2.77904 27.1917,3.0788 27.2403,3.26463 C27.2916,3.46081 27.3275,3.61958 27.3501,3.72486 C27.3937,3.92805 27.4161,4.06414 27.4209,4.09361 L1.76155,8.2883 Z M2.42171,10.9412 L3.33546,13.5386 L27.862,4.9104 L26.9483,2.31298 L2.42171,10.9412 Z M15.5988,-3.775483 L13.83,-3.775483 L13.83,22.2245 L15.5988,22.2245 L15.5988,-3.775483 Z M25.1828,2.89088 L25.0215,2.60185 L2.31599,15.2691 L2.47724,15.5582 L25.1828,2.89088 Z M7.51889,2.38342 L5.88389,3.22729 L17.8086,26.3314 L19.4436,25.4876 L7.51889,2.38342 Z M23.8228,9.7233 L23.4665,8.8795 L-0.4865,18.9915 L-0.13025,19.8354 L23.8228,9.7233 Z M11.49,26.9355 L13.4812,26.9355 L13.4812,0.93548 L11.49,0.93548 L11.49,26.9355 Z M19,1.96774 L13.7175,1.96774 L13.7175,27.9677 L19,27.9677 L19,1.96774 Z M19.6799,26.5198 L21.7849,25.4334 L9.8601,2.32922 L7.75514,3.41567 L19.6799,26.5198 Z M27.5201,8.2097 L27.5188,8.2072 L4.12367,19.5503 L4.12492,19.5528 L27.5201,8.2097 Z M21.6772,25.4851 C23.3643,24.6339 24.833,23.4485 26.0073,22.0256 L5.95484,5.47576 C7.04077,4.16 8.4006,3.06177 9.9653,2.27233 L21.6772,25.4851 Z M26.0073,22.0256 C27.1808,20.6038 28.0386,18.972 28.5487,17.2395 L3.60753,9.8954 C4.07805,8.2975 4.86979,6.7904 5.95484,5.47576 L26.0073,22.0256 Z M28.5487,17.2395 C29.0587,15.5077 29.2158,13.6949 29.015,11.908 L3.17756,14.8109 C2.99251,13.1638 3.13722,11.4926 3.60753,9.8954 L28.5487,17.2395 Z M29.015,11.908 C28.8143,10.1213 28.2576,8.3786 27.3634,6.7886 L4.70161,19.534 C3.87581,18.0656 3.3626,16.4579 3.17756,14.8109 L29.015,11.908 Z M27.3789,6.8163 L25.5714,3.58404 L2.87859,16.274 L4.68609,19.5063 L27.3789,6.8163 Z M14.225,22.929 L15.8413,22.929 L15.8413,-3.070968 L14.225,-3.070968 L14.225,22.929 Z M3.61431,14.3451 L4.23181,16.0548 L28.6857,7.2226 L28.0682,5.51292 L3.61431,14.3451 Z M16.4587,24.63871 L17.3225,24.63871 L17.3225,-1.36129 L16.4587,-1.36129 L16.4587,24.63871 Z M29.5186,7.1382 L27.2136,0.89177 L2.82137,9.8927 L5.12637,16.1392 L29.5186,7.1382 Z M15.0175,-7.60774 L14.1813,-7.60774 L14.1813,18.3923 L15.0175,18.3923 L15.0175,-7.60774 Z M1.98501,0.89207 L0.99376,3.57853 L25.3862,12.5789 L26.3775,9.8924 L1.98501,0.89207 Z M24.5349,1.731 L21.7474,-3.250939 L-0.94239,9.4445 L1.84511,14.4264 L24.5349,1.731 Z M10.4025,16.0968 L19,16.0968 L19,-9.90323 L10.4025,-9.90323 L10.4025,16.0968 Z M6,3.09677 L6,14.9677 L32,14.9677 L32,3.09677 L6,3.09677 Z" id="Shape" fill="#5B616E" fill-rule="nonzero" mask="url(#mask-2)"></path>
            </g>
            <path d="M16.30011,19.0614 C16.25699,18.9377 16.15926,18.8368 15.99923,18.7579 L15.95036,18.7912 C15.98948,18.8685 16.00631,18.9537 15.99923,19.0386 C15.75968,19.0386 15.43484,19.0386 14.9931,19.1623 C15.00556,18.8982 15.01801,18.6456 15.04197,18.4491 C15.4473,18.4096 15.91299,18.3482 16.28766,18.2754 C16.85205,18.1684 17.22672,18.0956 17.22672,17.88772 C17.22672,17.66842 16.74185,17.58421 16.43522,17.55088 L16.41031,17.56754 C16.35473,17.82544 15.45975,17.96053 15.11,18 C15.13492,17.86491 15.15312,17.74737 15.17708,17.65175 C15.20774,17.52807 15.32465,17.4386 15.32465,17.34825 C15.32465,17.16842 15.01801,17 14.55807,17 C14.36163,17 14.15945,17.11228 14.08566,17.25789 L14.09812,17.28597 C14.47854,17.25789 14.53986,17.35351 14.53986,17.57193 C14.53986,17.67281 14.53411,17.87544 14.52741,18.0605 C14.37984,18.0658 14.20832,18.0772 14.07321,18.0772 C13.71675,18.0772 13.47815,18.0158 13.34304,17.88597 L13.28747,17.93684 C13.37371,18.2228 13.66117,18.4877 14.1652,18.4877 C14.27539,18.4877 14.39805,18.4825 14.51495,18.4763 C14.5092,18.7342 14.5092,19.0211 14.50249,19.2965 C13.57014,19.6561 13,20.3184 13,20.993 C13,21.414 13.38041,21.6 13.70525,21.6 C14.17095,21.6 14.60119,21.4202 14.9816,21.1623 C15.08605,21.2912 15.20295,21.3421 15.27673,21.3421 C15.47892,21.3421 15.54024,21.1289 15.54024,21.0219 C15.54024,20.943 15.49713,20.8763 15.44251,20.786 C16.01361,20.2412 16.34419,19.5895 16.34419,19.3202 L16.34419,19.2754 C16.97566,19.4211 17.289,19.8482 17.289,20.4096 C17.28325,21.1009 16.63837,21.7132 15.26428,21.893 L15.30069,22 C17.23917,21.843 18,21.2702 18,20.4386 C17.99904,19.6737 17.29379,19.1684 16.30011,19.0614 Z M13.93906,21.0614 C13.65063,21.0614 13.56439,20.9886 13.56439,20.7579 C13.56439,20.3307 13.90744,19.9096 14.50345,19.5842 C14.50345,20.0447 14.55232,20.4211 14.69988,20.7632 C14.43542,20.943 14.15945,21.0614 13.93906,21.0614 Z M15.17804,20.3868 C14.99406,20.0105 14.99406,19.5947 14.99406,19.3588 C15.23361,19.2798 15.57091,19.2184 15.81046,19.2184 C15.85358,19.2184 15.91491,19.2184 15.96953,19.2237 C15.87179,19.5658 15.55174,20.0605 15.17804,20.386 L15.17804,20.3868 Z" id="Shape" fill="#5B616E" fill-rule="nonzero"></path>
        </g>
    </g>
</svg>