<svg width="20" height="20" viewBox="0 0 20 20" fill="none" xmlns="http://www.w3.org/2000/svg">
<path d="M17.1429 4.36401C16.4286 4.71334 15.7286 4.85521 15 5.0698C14.1993 4.16795 13.0122 4.11805 11.8715 4.54438C10.7307 4.97071 9.98361 6.01301 10 7.20859V7.92151C7.68218 7.98069 5.61789 6.92698 4.28575 5.0698C4.28575 5.0698 1.29861 10.369 7.14289 12.912C5.80575 13.801 4.47218 14.4006 2.85718 14.3379C5.22003 15.6233 7.79503 16.0653 10.0243 15.4194C12.5815 14.6779 14.6829 12.7651 15.4893 9.89989C15.7299 9.02846 15.8493 8.12816 15.8443 7.22427C15.8429 7.04675 16.9229 5.24804 17.1429 4.36329V4.36401Z" stroke="#ECECEC" stroke-width="1.5" stroke-linecap="round" stroke-linejoin="round"/>
</svg>
