<svg width="24" height="24" viewBox="0 0 24 24" fill="none" xmlns="http://www.w3.org/2000/svg">
<path d="M13.0019 18.7173C13.4163 18.7173 13.7402 18.5591 14.1395 18.1824L20.106 12.585C20.3998 12.3063 20.5128 11.9824 20.5128 11.7036C20.5128 11.4173 20.3998 11.1009 20.106 10.8222L14.1395 5.26249C13.7026 4.85568 13.4163 4.68994 13.017 4.68994C12.4143 4.68994 11.9849 5.15702 11.9849 5.74463V8.42655H11.7966C6.59849 8.42655 4.18777 11.7639 4.18777 17.2332C4.18777 18.1899 4.59458 18.6872 5.12193 18.6872C5.5212 18.6872 5.89034 18.5591 6.18415 18.0091C7.3669 15.8094 9.04687 15.0033 11.7966 15.0033H11.9849V17.7003C11.9849 18.2879 12.4143 18.7173 13.0019 18.7173ZM13.4841 16.7736C13.4163 16.7736 13.3711 16.7284 13.3711 16.6531V13.8733C13.3711 13.7 13.2958 13.6247 13.1225 13.6247H12.1582C8.70786 13.6247 6.50809 14.717 5.60407 16.6004C5.58147 16.6456 5.55887 16.6682 5.52873 16.6682C5.4986 16.6682 5.476 16.6456 5.476 16.5928C5.59654 12.9994 7.30664 9.79764 12.1582 9.79764H13.1225C13.2958 9.79764 13.3711 9.72231 13.3711 9.54904V6.70138C13.3711 6.63358 13.4163 6.58838 13.4841 6.58838C13.5293 6.58838 13.5745 6.61098 13.6122 6.64865L18.7575 11.5605C18.8103 11.6207 18.8329 11.6584 18.8329 11.7036C18.8329 11.7488 18.8178 11.7865 18.7575 11.8467L13.6046 16.7134C13.567 16.751 13.5218 16.7736 13.4841 16.7736Z" fill="#ECECEC"/>
</svg>
