<svg width="30" height="24" viewBox="0 0 30 24" fill="none" xmlns="http://www.w3.org/2000/svg">
<path d="M16 13.5957L17.2096 14.8053C17.6001 15.1958 18.2332 15.1958 18.6238 14.8053C19.0143 14.4147 19.0143 13.7816 18.6238 13.3911L15.7071 10.4744L15 9.76729L14.2929 10.4744L11.3762 13.3911C10.9857 13.7816 10.9857 14.4147 11.3762 14.8053C11.7668 15.1958 12.3999 15.1958 12.7904 14.8053L14 13.5957V22.8482C14 23.4005 14.4477 23.8482 15 23.8482C15.5523 23.8482 16 23.4005 16 22.8482V13.5957ZM24.3905 19.1815C27.4888 19.1815 30 16.6708 30 13.5732C30 10.4746 27.489 7.96308 24.3905 7.96308C24.3255 7.96461 24.3255 7.96461 24.2979 7.96684C24.3018 7.96631 24.3567 8.96483 24.3567 8.96483L25.3489 9.08936C25.3934 8.73486 25.4167 8.40956 25.4167 8.0875C25.4167 3.62086 21.7961 0 17.3293 0C13.9187 0 10.9154 2.13449 9.74957 5.28521L10.6874 5.63225L11.3952 4.92579C10.5564 4.08553 9.41848 3.60325 8.20767 3.60325C5.71941 3.60325 3.70242 5.62002 3.70242 8.10792C3.70486 8.20982 3.70486 8.20982 3.70894 8.26472C3.71061 8.28903 4.71 8.25433 4.71 8.25433L4.44359 7.29047C1.83733 8.01084 0 10.3845 0 13.1246C0 16.47 2.71174 19.1815 6.0575 19.1815H10.9167C11.469 19.1815 11.9167 18.7338 11.9167 18.1815C11.9167 17.6292 11.469 17.1815 10.9167 17.1815H6.0575C3.81627 17.1815 2 15.3654 2 13.1246C2 11.2906 3.23065 9.70072 4.97641 9.21819C5.42265 9.09485 5.72589 8.68132 5.70936 8.21864C5.70664 8.16102 5.70664 8.16102 5.70409 8.12541C5.70242 6.72464 6.82393 5.60325 8.20767 5.60325C8.88177 5.60325 9.51227 5.87046 9.97966 6.33871C10.4951 6.85507 11.3721 6.66352 11.6253 5.97929C12.5034 3.60629 14.7634 2 17.3293 2C20.6915 2 23.4167 4.7254 23.4167 8.0875C23.4167 8.31927 23.3992 8.56333 23.3645 8.8403C23.2895 9.43732 23.755 9.96483 24.3567 9.96483C24.4293 9.96292 24.4293 9.96292 24.4535 9.96077C26.3843 9.96308 28 11.5791 28 13.5732C28 15.5661 26.3843 17.1815 24.3905 17.1815H19.0833C18.531 17.1815 18.0833 17.6292 18.0833 18.1815C18.0833 18.7338 18.531 19.1815 19.0833 19.1815H24.3905Z" fill="#ECECEC"/>
</svg>
