<svg width="20" height="20" viewBox="0 0 20 20" fill="none" xmlns="http://www.w3.org/2000/svg">
<path d="M5.1343 13.6084C4.87063 13.872 4.85807 14.3429 5.14058 14.6191C5.41681 14.8953 5.88765 14.889 6.15132 14.6254L9.9934 10.777L13.8418 14.6254C14.1117 14.8953 14.5763 14.8953 14.8525 14.6191C15.1224 14.3366 15.1287 13.8783 14.8525 13.6084L11.0104 9.76L14.8525 5.91792C15.1287 5.64797 15.1287 5.18341 14.8525 4.90718C14.57 4.63723 14.1117 4.63095 13.8418 4.9009L9.9934 8.74926L6.15132 4.9009C5.88765 4.63723 5.41053 4.62468 5.14058 4.90718C4.86435 5.18341 4.87063 5.65425 5.1343 5.91792L8.98266 9.76L5.1343 13.6084Z" fill="#5A6273"/>
</svg>
