<svg width="94" height="94" viewBox="0 0 94 94" fill="none" xmlns="http://www.w3.org/2000/svg">
<g clip-path="url(#clip0_9827_44865)">
<path d="M47 94C72.9574 94 94 72.9574 94 47C94 21.0426 72.9574 0 47 0C21.0426 0 0 21.0426 0 47C0 72.9574 21.0426 94 47 94Z" fill="#CF202F"/>
<path d="M50.5246 52.8758V28.2008C50.5246 26.254 48.9464 24.6758 46.9996 24.6758C45.0528 24.6758 43.4746 26.254 43.4746 28.2008V52.8758C43.4746 54.8226 45.0528 56.4008 46.9996 56.4008C48.9464 56.4008 50.5246 54.8226 50.5246 52.8758Z" fill="white"/>
<path d="M47.5871 63.4492H46.4121C44.7898 63.4492 43.4746 64.7644 43.4746 66.3867C43.4746 68.0091 44.7898 69.3242 46.4121 69.3242H47.5871C49.2094 69.3242 50.5246 68.0091 50.5246 66.3867C50.5246 64.7644 49.2094 63.4492 47.5871 63.4492Z" fill="white"/>
</g>
<defs>
<clipPath id="clip0_9827_44865">
<rect width="94" height="94" fill="white"/>
</clipPath>
</defs>
</svg>
