<svg width="375" height="522" viewBox="0 0 375 522" fill="none" xmlns="http://www.w3.org/2000/svg">
<rect width="375" height="522" fill="url(#paint0_linear_4211_22819)"/>
<rect width="375" height="522" fill="black" fill-opacity="0.3"/>
<g clip-path="url(#clip0_4211_22819)">
<g opacity="0.2">
<path d="M-189.799 395.154L93.5067 678.341L376.4 395.154L93.5067 112.379L-189.799 395.154Z" fill="url(#paint1_radial_4211_22819)"/>
<path d="M230.42 255.415H-48.3488V534.068H230.42V255.415Z" fill="url(#paint2_radial_4211_22819)"/>
<path d="M229.585 398.452L88.1383 534.893L-49.1844 394.33L93.4992 256.653L229.585 398.452Z" fill="url(#paint3_radial_4211_22819)"/>
<path d="M96.3928 -76L-24.8471 -5.92464L-315.988 162.256V269.018L-189.799 395.154L93.5061 112.379L211.859 -5.92464L96.3928 -76Z" fill="url(#paint4_linear_4211_22819)"/>
<path d="M-315.988 262.012V520.878V637.533L-31.0328 802.004L93.506 677.517" fill="url(#paint5_linear_4211_22819)"/>
<path d="M372.278 395.154L87.3231 678.341L-34.7415 800.354L91.8593 875.376L214.336 804.889L503.002 638.357V527.885L372.278 395.154Z" fill="url(#paint6_linear_4211_22819)"/>
<path d="M502.993 539.426V262.834V162.256L208.141 -7.98633L90.6124 109.081" fill="url(#paint7_linear_4211_22819)"/>
</g>
</g>
<defs>
<linearGradient id="paint0_linear_4211_22819" x1="6.94126e-06" y1="522" x2="497.961" y2="251.147" gradientUnits="userSpaceOnUse">
<stop offset="0.411458" stop-color="#9D3EF2"/>
<stop offset="1" stop-color="#3036F4"/>
</linearGradient>
<radialGradient id="paint1_radial_4211_22819" cx="0" cy="0" r="1" gradientUnits="userSpaceOnUse" gradientTransform="translate(93.4475 395.248) scale(283.077 282.959)">
<stop stop-color="#71BCF8"/>
<stop offset="0.366" stop-color="#71ADF8"/>
<stop offset="0.4498" stop-color="#72A8F7"/>
<stop offset="0.5477" stop-color="#759AF5"/>
<stop offset="0.6526" stop-color="#7A83F2"/>
<stop offset="0.7617" stop-color="#8162ED"/>
<stop offset="0.7706" stop-color="#825FED"/>
<stop offset="1" stop-color="#7000E0"/>
</radialGradient>
<radialGradient id="paint2_radial_4211_22819" cx="0" cy="0" r="1" gradientUnits="userSpaceOnUse" gradientTransform="translate(90.8168 394.51) scale(210.644 210.556)">
<stop offset="0.1856" stop-color="#71D5F8"/>
<stop offset="0.2728" stop-color="#72D0F8"/>
<stop offset="0.3796" stop-color="#74C1F6"/>
<stop offset="0.4968" stop-color="#77A8F4"/>
<stop offset="0.6205" stop-color="#7C85F1"/>
<stop offset="0.7345" stop-color="#825FED"/>
<stop offset="1" stop-color="#7000E0"/>
</radialGradient>
<radialGradient id="paint3_radial_4211_22819" cx="0" cy="0" r="1" gradientUnits="userSpaceOnUse" gradientTransform="translate(90.2042 395.761) rotate(1.09585) scale(131.722 129.657)">
<stop stop-color="#95DBF7"/>
<stop offset="0.4923" stop-color="#83A3F2"/>
<stop offset="0.5029" stop-color="#82A1F2"/>
<stop offset="0.7983" stop-color="#7476EE"/>
<stop offset="0.9485" stop-color="#6F65EC"/>
</radialGradient>
<linearGradient id="paint4_linear_4211_22819" x1="24.9912" y1="208.559" x2="-170.916" y2="12.57" gradientUnits="userSpaceOnUse">
<stop stop-color="#71DFF8"/>
<stop offset="0.1134" stop-color="#71ADF8"/>
<stop offset="0.4768" stop-color="#825FED"/>
<stop offset="1" stop-color="#9900CC"/>
</linearGradient>
<linearGradient id="paint5_linear_4211_22819" x1="-93.9703" y1="452.458" x2="-326.038" y2="684.622" gradientUnits="userSpaceOnUse">
<stop stop-color="#71DFF8"/>
<stop offset="0.1134" stop-color="#71ADF8"/>
<stop offset="0.4768" stop-color="#825FED"/>
<stop offset="1" stop-color="#9900CC"/>
</linearGradient>
<linearGradient id="paint6_linear_4211_22819" x1="156.744" y1="585.613" x2="334.434" y2="763.378" gradientUnits="userSpaceOnUse">
<stop stop-color="#71DFF8"/>
<stop offset="0.1134" stop-color="#71ADF8"/>
<stop offset="0.4768" stop-color="#825FED"/>
<stop offset="1" stop-color="#9900CC"/>
</linearGradient>
<linearGradient id="paint7_linear_4211_22819" x1="285.637" y1="335.423" x2="472.265" y2="148.717" gradientUnits="userSpaceOnUse">
<stop stop-color="#71DFF8"/>
<stop offset="0.1134" stop-color="#71ADF8"/>
<stop offset="0.4768" stop-color="#825FED"/>
<stop offset="1" stop-color="#9900CC"/>
</linearGradient>
<clipPath id="clip0_4211_22819">
<rect width="697" height="602" fill="white" transform="translate(-255 -76)"/>
</clipPath>
</defs>
</svg>
